<?xml version="1.0" standalone="no"?>
<!DOCTYPE svg PUBLIC "-//W3C//DTD SVG 20010904//EN"
 "http://www.w3.org/TR/2001/REC-SVG-20010904/DTD/svg10.dtd">
<svg version="1.0" xmlns="http://www.w3.org/2000/svg"
 width="1019.000000pt" height="1019.000000pt" viewBox="0 0 1019.000000 1019.000000"
 preserveAspectRatio="xMidYMid meet">
<metadata>
Created by potrace 1.11, written by Peter Selinger 2001-2013
</metadata>
<g transform="translate(0.000000,1019.000000) scale(0.100000,-0.100000)"
fill="#000000" stroke="none">
<path d="M397 8814 c-188 -45 -337 -197 -376 -384 -9 -41 -12 -899 -11 -3362
0 -3257 1 -3308 20 -3371 36 -118 131 -218 250 -264 41 -16 132 -18 1115 -24
589 -3 1622 -7 2298 -8 1074 -1 1239 -3 1325 -17 127 -21 255 -14 354 20 l73
25 2220 3 2220 3 58 23 c81 33 166 114 203 194 l29 63 3 2708 2 2708 -832 -1
c-907 -2 -882 -3 -1057 56 -115 39 -341 154 -478 243 -67 43 -199 137 -295
207 -380 281 -681 464 -843 511 -53 15 -128 18 -610 22 l-550 6 0 245 c0 210
-2 249 -17 275 -25 46 -67 81 -128 107 l-55 23 -2430 2 c-2057 1 -2439 -1
-2488 -13z m627 -120 c92 -24 173 -71 246 -144 297 -297 166 -793 -240 -914
-34 -10 -91 -17 -147 -17 -159 0 -294 59 -403 177 -198 215 -190 548 19 754
71 71 156 121 242 144 72 20 207 20 283 0z m1097 -39 c37 -20 69 -70 69 -110
0 -68 -65 -135 -130 -135 -63 0 -130 68 -130 133 0 93 106 155 191 112z m456
-29 c28 -30 33 -43 33 -85 0 -38 -6 -56 -26 -80 -57 -68 -169 -58 -210 20 -23
45 -18 103 13 139 34 41 58 51 113 46 35 -3 51 -11 77 -40z m2463 -361 l0
-215 -24 0 c-13 0 -32 -3 -40 -6 -15 -6 -16 15 -14 207 l3 214 30 6 c17 4 33
7 38 8 4 0 7 -96 7 -214z m37 -102 c-1 -60 -3 -11 -3 107 0 118 2 167 3 108 2
-60 2 -156 0 -215z m-150 -30 c-1 -60 -3 -11 -3 107 0 118 2 167 3 108 2 -60
2 -156 0 -215z m150 -215 c-2 -24 -4 -7 -4 37 0 44 2 63 4 43 2 -21 2 -57 0
-80z m-37 32 c0 -38 -4 -70 -9 -70 -5 0 -23 -3 -40 -6 l-31 -6 0 70 c0 75 2
78 58 81 21 1 22 -3 22 -69z m-113 -57 c-2 -21 -4 -4 -4 37 0 41 2 58 4 38 2
-21 2 -55 0 -75z m113 -2858 c0 -2244 -3 -2816 -12 -2819 -7 -3 -25 -7 -40
-10 l-28 -6 0 2819 0 2820 28 4 c15 2 33 5 40 6 9 1 12 -568 12 -2814z m37
-1407 c-1 -777 -2 -144 -2 1407 0 1551 1 2187 2 1413 2 -773 2 -2042 0 -2820z
m-150 -31 c-1 -776 -2 -141 -2 1413 0 1554 1 2189 2 1412 2 -776 2 -2048 0
-2825z m-582 3433 c25 -6 52 -22 73 -44 l32 -36 0 -1596 c0 -1793 7 -1634 -75
-1674 -41 -20 -68 -20 -1674 -20 l-1633 0 -299 297 -299 297 0 1334 c0 1219 1
1337 16 1369 19 39 49 62 97 73 47 11 3714 11 3762 0z m4955 -3731 c51 -29 83
-80 88 -143 9 -115 -80 -203 -194 -194 -153 13 -224 192 -121 304 59 65 148
77 227 33z m-4223 -1221 c-2 -24 -4 -7 -4 37 0 44 2 63 4 43 2 -21 2 -57 0
-80z m-37 32 c0 -60 -3 -70 -17 -70 -10 0 -28 -3 -40 -6 -22 -6 -23 -4 -23 64
0 75 2 78 58 81 21 1 22 -3 22 -69z m-113 -57 c-2 -21 -4 -4 -4 37 0 41 2 58
4 38 2 -21 2 -55 0 -75z m113 -223 c0 -99 -4 -180 -9 -180 -5 0 -23 -3 -40 -6
l-31 -6 0 180 c0 179 0 181 23 185 61 12 57 24 57 -173z m37 -82 c-1 -51 -3
-12 -3 87 0 99 2 141 3 93 2 -48 2 -129 0 -180z m-150 -35 c-1 -54 -3 -12 -3
92 0 105 2 149 3 98 2 -51 2 -136 0 -190z"/>
<path d="M828 8630 c-66 -17 -159 -70 -208 -120 -211 -210 -151 -565 118 -697
74 -37 79 -38 186 -38 105 0 115 2 183 34 40 18 80 42 89 52 9 11 23 19 31 19
7 0 13 3 13 8 0 4 18 31 39 60 62 82 85 151 85 257 0 70 -5 103 -23 147 -45
116 -144 215 -259 258 -64 25 -195 35 -254 20z m262 -41 c68 -32 129 -91 161
-155 20 -40 24 -64 24 -135 0 -78 -3 -91 -37 -160 -95 -193 -283 -279 -487
-225 -257 69 -317 380 -114 589 84 87 167 118 303 114 77 -2 105 -8 150 -28z"/>
<path d="M2211 6854 c-12 -15 -21 -34 -21 -44 0 -10 9 -29 21 -44 41 -52 129
-23 129 44 0 67 -88 96 -129 44z"/>
<path d="M2611 6854 c-27 -34 -26 -54 0 -88 28 -36 83 -33 112 6 54 73 -56
153 -112 82z"/>
<path d="M899 6567 c-18 -12 -39 -34 -46 -47 -10 -20 -13 -246 -13 -1031 l0
-1006 23 -34 c13 -19 38 -39 57 -46 50 -17 3070 -17 3120 0 19 7 44 27 57 46
l23 34 0 1006 c0 785 -3 1011 -13 1031 -7 13 -28 35 -46 47 l-34 23 -1547 0
-1547 0 -34 -23z m3131 -10 c24 -8 41 -23 52 -47 17 -33 18 -102 18 -1018 0
-1073 2 -1034 -56 -1061 -18 -8 -436 -11 -1570 -11 -1705 0 -1580 -5 -1603 62
-8 21 -11 340 -11 1017 0 961 1 987 20 1018 12 20 32 36 52 42 52 15 3054 13
3098 -2z"/>
<path d="M1255 4192 c-117 -55 -150 -205 -68 -303 68 -81 209 -91 286 -21 60
54 77 164 38 240 -44 87 -165 127 -256 84z"/>
<path d="M2990 4180 c0 -7 172 -10 495 -10 323 0 495 3 495 10 0 7 -172 10
-495 10 -323 0 -495 -3 -495 -10z"/>
<path d="M2992 4058 c4 -10 114 -14 496 -16 433 -2 492 0 492 13 0 13 -60 15
-496 15 -392 0 -495 -3 -492 -12z"/>
<path d="M2997 3943 c-4 -3 -7 -10 -7 -15 0 -4 223 -8 496 -8 392 0 495 3 492
13 -4 9 -112 13 -490 15 -266 1 -488 -1 -491 -5z"/>
<path d="M2990 3811 c0 -5 10 -11 23 -15 29 -8 881 -8 930 0 106 18 -8 24
-458 24 -280 0 -495 -4 -495 -9z"/>
</g>
</svg>
